<svg width="393" height="220" viewBox="0 0 393 220" fill="none" xmlns="http://www.w3.org/2000/svg">
<path d="M0.594 8.92397L0 4.17197H27.72L28.314 28.526C28.314 29.318 28.38 33.674 28.512 41.594C28.644 49.382 28.776 58.16 28.908 67.928C29.172 77.696 29.436 87.53 29.7 97.43C29.964 107.33 30.228 175.646 30.492 182.378C30.756 189.11 31.02 192.476 31.284 192.476C31.812 192.476 32.076 191.156 32.076 188.516C31.944 184.028 32.604 104.162 34.056 68.918C35.64 33.674 36.63 14.468 37.026 11.3L37.818 4.76597L49.698 4.36997H54.846C59.466 4.36997 62.172 4.83197 62.964 5.75597C63.228 6.28397 63.36 7.47198 63.36 9.31997C63.36 15.392 62.238 29.186 59.994 50.702C59.466 56.906 58.278 69.182 56.43 87.53C54.714 105.746 53.592 177.956 53.064 184.16C51.216 204.356 49.83 215.246 48.906 216.83C48.246 217.886 47.058 218.48 45.342 218.612C43.758 218.876 38.742 219.008 30.294 219.008H13.068L7.128 86.54C6.336 76.508 5.346 64.562 4.158 50.702C2.97 36.842 2.046 26.612 1.386 20.012C0.858 13.412 0.594 9.71597 0.594 8.92397Z" fill="#93A7A0" fill-opacity="0.5"/>
<path d="M67.2999 217.226V2.98397H79.9719C88.4199 2.98397 92.9079 3.37997 93.4359 4.17197C93.8319 4.83197 94.0299 12.092 94.0299 25.952V34.466C94.0299 36.974 93.9639 40.076 93.8319 43.772C93.8319 47.336 93.8319 49.712 93.8319 50.9C93.8319 57.896 94.0959 62.252 94.6239 63.968C95.1519 65.552 96.4059 66.344 98.3859 66.344H99.5739C101.818 66.344 103.138 64.892 103.534 61.988C103.93 59.084 104.128 49.778 104.128 34.07V2.98397H131.65L131.452 77.828C131.32 187.724 130.726 213.266 129.67 214.454C128.746 215.51 124.258 216.038 116.206 216.038H104.128V86.54C103.072 86.54 101.422 86.672 99.1779 86.936C97.0659 87.2 95.4819 87.332 94.4259 87.332V181.19C94.4259 203.762 93.8979 215.378 92.8419 216.038C91.7859 216.83 87.2979 217.226 79.3779 217.226H67.2999Z" fill="#93A7A0" fill-opacity="0.5"/>
<path d="M136.165 77.234L135.571 3.97397H158.935C174.247 3.97397 182.365 4.43598 183.289 5.35998C184.081 6.15198 184.477 10.046 184.477 17.042V27.536H163.093L163.291 47.138L163.687 66.74C165.271 66.74 167.713 66.872 171.013 67.136C174.313 67.4 176.755 67.532 178.339 67.532V80.006C178.339 84.362 177.943 86.87 177.151 87.53C176.359 88.19 173.719 88.652 169.231 88.916C165.931 89.048 163.885 90.302 163.093 92.678C162.433 95.054 162.103 101.918 162.103 113.27V177.032C162.103 186.008 162.565 191.288 163.489 192.872C164.413 194.456 167.581 195.446 172.993 195.842C173.521 195.974 173.983 196.04 174.379 196.04C180.055 196.568 183.025 196.964 183.289 197.228L183.685 207.524V210.89C183.685 215.246 183.289 217.688 182.497 218.216C181.573 218.876 173.851 219.206 159.331 219.206H137.749L137.155 214.85C137.023 213.926 136.693 188.054 136.165 77.234Z" fill="#93A7A0" fill-opacity="0.5"/>
<path d="M219.064 24.368C218.14 23.708 217.084 23.378 215.896 23.378C215.368 23.378 214.972 23.576 214.708 23.972C214.576 24.368 214.378 25.688 214.114 27.932C213.982 30.044 213.916 32.75 213.916 36.05C213.916 39.35 213.916 44.498 213.916 51.494V79.61H222.232L222.034 58.424C221.902 36.908 220.912 25.556 219.064 24.368ZM189.166 78.224L188.374 1.99398L210.154 2.38997C221.638 2.52198 229.096 2.98398 232.528 3.77598C235.96 4.43598 238.864 5.95398 241.24 8.32998C243.748 11.102 245.332 14.402 245.992 18.23C246.652 22.058 247.114 31.034 247.378 45.158C247.378 47.27 247.378 50.174 247.378 53.87C247.51 57.566 247.576 60.14 247.576 61.592C247.576 68.72 247.444 72.812 247.18 73.868C246.652 75.848 244.936 78.95 242.032 83.174C239.524 87.002 238.27 89.312 238.27 90.104C238.27 90.5 238.402 90.764 238.666 90.896C239.59 91.556 240.448 91.886 241.24 91.886C244.408 91.886 246.52 99.344 247.576 114.26C248.236 181.916 249.094 190.892 250.15 201.188C250.414 203.3 250.678 205.544 250.942 207.92C251.206 210.296 251.404 212.078 251.536 213.266C251.668 214.454 251.734 215.114 251.734 215.246C251.734 215.774 247.906 216.038 240.25 216.038C230.35 216.038 225.202 215.708 224.806 215.048C224.278 214.256 223.552 205.676 222.628 189.308C221.704 173.072 220.912 103.304 220.252 100.004C219.592 96.572 218.14 94.856 215.896 94.856C214.576 94.856 213.916 164.69 213.916 184.358C213.916 199.01 213.784 207.656 213.52 210.296C213.388 212.936 212.794 214.652 211.738 215.444C209.89 216.632 205.732 217.226 199.264 217.226C194.38 217.226 191.542 216.764 190.75 215.84C190.09 215.18 189.562 189.308 189.166 78.224Z" fill="#93A7A0" fill-opacity="0.5"/>
<path d="M298.446 6.34998C298.974 5.68998 301.35 5.35998 305.574 5.35998H309.93L320.226 5.55798V215.642L307.554 216.434C303.33 216.698 300.492 216.83 299.04 216.83C296.004 216.83 294.354 216.698 294.09 216.434C293.166 215.51 290.592 202.838 286.368 178.418C282.144 153.866 279.438 75.848 278.25 64.364C277.062 53.408 276.204 47.93 275.676 47.93C275.412 47.93 275.28 48.128 275.28 48.524C275.28 49.316 275.412 52.022 275.676 56.642C275.94 61.262 276.27 67.994 276.666 76.838C277.194 85.682 277.656 93.734 278.052 100.994L281.22 213.464L279.042 215.246C277.458 216.566 273.498 217.226 267.162 217.226C260.826 217.226 257.262 216.698 256.47 215.642C255.942 215.114 255.678 207.722 255.678 193.466C255.678 190.166 255.81 112.412 256.074 80.204L256.668 5.95397L271.122 6.34998L285.576 6.54798L287.16 17.834C294.816 69.446 299.172 167.034 300.228 170.598C300.36 171.258 300.558 171.588 300.822 171.588C300.954 171.588 301.02 170.07 301.02 167.034C301.02 161.49 300.426 75.452 299.238 48.92C298.446 30.704 298.05 18.626 298.05 12.686C298.05 8.72598 298.182 6.61397 298.446 6.34998Z" fill="#93A7A0" fill-opacity="0.5"/>
<path d="M360.575 65.948C359.123 41.396 358.265 28.988 358.001 28.724C357.605 28.328 357.407 28.46 357.407 29.12C357.407 29.252 357.341 30.968 357.209 34.268C357.077 37.436 356.879 42.122 356.615 48.326C356.351 54.398 356.087 60.338 355.823 66.146C355.163 82.382 354.833 143.536 354.833 149.608C354.833 151.852 354.899 153.04 355.031 153.172C355.427 153.7 356.813 153.964 359.189 153.964C361.433 153.964 362.555 153.7 362.555 153.172C362.555 153.04 362.423 151.39 362.159 148.222C362.027 145.054 361.763 140.368 361.367 134.164C361.103 127.96 360.839 71.888 360.575 65.948ZM341.369 1.20197C341.897 0.409976 344.009 0.0139771 347.705 0.0139771C348.497 0.0139771 352.061 0.145975 358.397 0.409972C368.693 0.937973 374.303 1.46597 375.227 1.99398C375.887 2.65397 378.461 23.114 382.949 63.374C386.513 92.942 389.351 177.428 391.463 196.832C392.387 204.224 392.849 208.514 392.849 209.702C392.849 210.23 392.783 210.692 392.651 211.088C392.651 211.484 392.519 211.814 392.255 212.078C392.123 212.474 391.925 212.738 391.661 212.87C391.529 213.134 391.265 213.332 390.869 213.464C390.473 213.596 390.077 213.728 389.681 213.86C389.285 213.992 388.691 214.058 387.899 214.058C387.107 214.058 386.381 214.058 385.721 214.058C385.193 214.19 384.335 214.256 383.147 214.256C382.091 214.388 381.101 214.454 380.177 214.454C375.425 214.718 372.587 214.85 371.663 214.85C368.495 214.85 366.647 214.586 366.119 214.058C365.327 213.266 364.601 207.722 363.941 197.426L362.951 181.982H355.823L355.031 198.02L354.041 214.058H324.539L325.133 205.148C326.981 181.388 331.073 81.392 337.409 25.16C339.125 10.112 340.445 2.12598 341.369 1.20197Z" fill="#93A7A0" fill-opacity="0.5"/>
</svg>
